<mxfile host="www.draw.io" modified="2019-10-17T01:28:18.339Z" agent="Mozilla/5.0 (Macintosh; Intel Mac OS X 10_14_3) AppleWebKit/605.1.15 (KHTML, like Gecko) Version/12.0.3 Safari/605.1.15" etag="V2W2v30LaXy2I56DjQrV" version="12.1.2" type="github" pages="1">
  <diagram id="-B9YJFwQm119F4XbfN-M" name="Page-1">
    <mxGraphModel dx="1355" dy="805" grid="1" gridSize="10" guides="1" tooltips="1" connect="1" arrows="1" fold="1" page="1" pageScale="1" pageWidth="850" pageHeight="1100" math="0" shadow="0">
      <root>
        <mxCell id="0"/>
        <mxCell id="1" parent="0"/>
        <mxCell id="rRmiGGZcv_EvDIRI6Y1_-23" value="DNS Server" style="html=1;whiteSpace=wrap;comic=1;strokeWidth=1;fontFamily=Comic Sans MS;fontStyle=1;fillColor=none;strokeColor=#333333;fontColor=#333333;" parent="1" vertex="1">
          <mxGeometry x="450" y="130" width="120" height="30" as="geometry"/>
        </mxCell>
        <mxCell id="rRmiGGZcv_EvDIRI6Y1_-28" value="95.177.161.224" style="shape=delay;whiteSpace=wrap;html=1;strokeColor=#333333;fillColor=none;fontColor=#333333;" parent="1" vertex="1">
          <mxGeometry x="630" y="85" width="120" height="40" as="geometry"/>
        </mxCell>
        <mxCell id="rRmiGGZcv_EvDIRI6Y1_-30" value="95.177.163.224" style="shape=delay;whiteSpace=wrap;html=1;strokeColor=#333333;fillColor=none;fontColor=#333333;" parent="1" vertex="1">
          <mxGeometry x="630" y="165" width="120" height="40" as="geometry"/>
        </mxCell>
        <mxCell id="rRmiGGZcv_EvDIRI6Y1_-31" value="" style="endArrow=classic;startArrow=classic;html=1;fontColor=#333333;entryX=0;entryY=0.5;entryDx=0;entryDy=0;exitX=0.5;exitY=0;exitDx=0;exitDy=0;dashed=1;strokeColor=#666666;" parent="1" source="rRmiGGZcv_EvDIRI6Y1_-23" target="rRmiGGZcv_EvDIRI6Y1_-28" edge="1">
          <mxGeometry width="50" height="50" relative="1" as="geometry">
            <mxPoint x="560" y="130" as="sourcePoint"/>
            <mxPoint x="610" y="80" as="targetPoint"/>
            <Array as="points">
              <mxPoint x="510" y="105"/>
            </Array>
          </mxGeometry>
        </mxCell>
        <mxCell id="rRmiGGZcv_EvDIRI6Y1_-33" value="" style="endArrow=classic;startArrow=classic;html=1;fontColor=#333333;entryX=0;entryY=0.5;entryDx=0;entryDy=0;exitX=0.5;exitY=1;exitDx=0;exitDy=0;dashed=1;strokeColor=#666666;" parent="1" source="rRmiGGZcv_EvDIRI6Y1_-23" target="rRmiGGZcv_EvDIRI6Y1_-30" edge="1">
          <mxGeometry width="50" height="50" relative="1" as="geometry">
            <mxPoint x="80" y="280" as="sourcePoint"/>
            <mxPoint x="130" y="230" as="targetPoint"/>
            <Array as="points">
              <mxPoint x="510" y="185"/>
            </Array>
          </mxGeometry>
        </mxCell>
        <mxCell id="rRmiGGZcv_EvDIRI6Y1_-34" value="" style="shape=cloud;whiteSpace=wrap;html=1;strokeColor=#333333;strokeWidth=1;fillColor=#FF9999;fontColor=#333333;" parent="1" vertex="1">
          <mxGeometry x="290" y="190" width="160" height="90" as="geometry"/>
        </mxCell>
        <mxCell id="rRmiGGZcv_EvDIRI6Y1_-38" value="" style="verticalLabelPosition=bottom;verticalAlign=top;html=1;shape=mxgraph.basic.rounded_frame;dx=10;strokeColor=#333333;strokeWidth=1;fillColor=none;fontColor=#333333;" parent="1" vertex="1">
          <mxGeometry x="120" y="125" width="70" height="40" as="geometry"/>
        </mxCell>
        <mxCell id="rRmiGGZcv_EvDIRI6Y1_-39" value="Meter" style="text;html=1;resizable=0;points=[];autosize=1;align=left;verticalAlign=top;spacingTop=-4;fontColor=#4D4D4D;fontSize=14;" parent="1" vertex="1">
          <mxGeometry x="136" y="135" width="50" height="20" as="geometry"/>
        </mxCell>
        <mxCell id="rRmiGGZcv_EvDIRI6Y1_-46" value="" style="verticalLabelPosition=bottom;verticalAlign=top;html=1;shape=mxgraph.basic.rounded_frame;dx=10;strokeColor=#333333;strokeWidth=1;fillColor=none;fontColor=#333333;" parent="1" vertex="1">
          <mxGeometry x="36" y="125" width="70" height="40" as="geometry"/>
        </mxCell>
        <mxCell id="rRmiGGZcv_EvDIRI6Y1_-47" value="Meter" style="text;html=1;resizable=0;points=[];autosize=1;align=left;verticalAlign=top;spacingTop=-4;fontColor=#4D4D4D;fontSize=14;" parent="1" vertex="1">
          <mxGeometry x="52" y="135" width="50" height="20" as="geometry"/>
        </mxCell>
        <mxCell id="rRmiGGZcv_EvDIRI6Y1_-48" value="" style="endArrow=classic;startArrow=classic;html=1;dashed=1;strokeColor=#666666;fontSize=14;fontColor=#4D4D4D;entryX=0.25;entryY=0.25;entryDx=0;entryDy=0;entryPerimeter=0;exitX=0.5;exitY=0;exitDx=0;exitDy=0;exitPerimeter=0;" parent="1" source="rRmiGGZcv_EvDIRI6Y1_-46" target="rRmiGGZcv_EvDIRI6Y1_-34" edge="1">
          <mxGeometry width="50" height="50" relative="1" as="geometry">
            <mxPoint x="30" y="350" as="sourcePoint"/>
            <mxPoint x="80" y="300" as="targetPoint"/>
            <Array as="points">
              <mxPoint x="70" y="100"/>
              <mxPoint x="300" y="100"/>
            </Array>
          </mxGeometry>
        </mxCell>
        <mxCell id="rRmiGGZcv_EvDIRI6Y1_-54" value="" style="endArrow=classic;startArrow=classic;html=1;dashed=1;strokeColor=#666666;fontSize=14;fontColor=#4D4D4D;entryX=0.625;entryY=0.2;entryDx=0;entryDy=0;entryPerimeter=0;exitX=0;exitY=0.5;exitDx=0;exitDy=0;edgeStyle=orthogonalEdgeStyle;curved=1;" parent="1" source="rRmiGGZcv_EvDIRI6Y1_-23" target="rRmiGGZcv_EvDIRI6Y1_-34" edge="1">
          <mxGeometry width="50" height="50" relative="1" as="geometry">
            <mxPoint x="30" y="350" as="sourcePoint"/>
            <mxPoint x="80" y="300" as="targetPoint"/>
          </mxGeometry>
        </mxCell>
        <mxCell id="rRmiGGZcv_EvDIRI6Y1_-55" value="" style="rounded=1;whiteSpace=wrap;html=1;strokeColor=#333333;strokeWidth=1;fillColor=none;fontSize=14;fontColor=#4D4D4D;" parent="1" vertex="1">
          <mxGeometry x="71" y="320" width="289" height="60" as="geometry"/>
        </mxCell>
        <mxCell id="rRmiGGZcv_EvDIRI6Y1_-57" value="" style="endArrow=classic;startArrow=classic;html=1;strokeColor=#666666;fontSize=14;fontColor=#4D4D4D;entryX=0.13;entryY=0.77;entryDx=0;entryDy=0;entryPerimeter=0;exitX=0.5;exitY=1;exitDx=0;exitDy=0;exitPerimeter=0;" parent="1" source="rRmiGGZcv_EvDIRI6Y1_-46" target="rRmiGGZcv_EvDIRI6Y1_-34" edge="1">
          <mxGeometry width="50" height="50" relative="1" as="geometry">
            <mxPoint x="30" y="530" as="sourcePoint"/>
            <mxPoint x="80" y="480" as="targetPoint"/>
            <Array as="points">
              <mxPoint x="71" y="259"/>
            </Array>
          </mxGeometry>
        </mxCell>
        <mxCell id="rRmiGGZcv_EvDIRI6Y1_-58" value="" style="rounded=1;whiteSpace=wrap;html=1;strokeColor=#333333;strokeWidth=1;fillColor=none;fontSize=14;fontColor=#4D4D4D;" parent="1" vertex="1">
          <mxGeometry x="82" y="330" width="98" height="40" as="geometry"/>
        </mxCell>
        <mxCell id="rRmiGGZcv_EvDIRI6Y1_-61" value="lvs" style="text;html=1;strokeColor=none;fillColor=none;align=center;verticalAlign=middle;whiteSpace=wrap;rounded=0;fontSize=14;fontColor=#4D4D4D;" parent="1" vertex="1">
          <mxGeometry x="111" y="330" width="40" height="20" as="geometry"/>
        </mxCell>
        <mxCell id="rRmiGGZcv_EvDIRI6Y1_-62" value="keepalived" style="text;html=1;strokeColor=none;fillColor=none;align=center;verticalAlign=middle;whiteSpace=wrap;rounded=0;fontSize=14;fontColor=#4D4D4D;" parent="1" vertex="1">
          <mxGeometry x="111" y="348" width="40" height="20" as="geometry"/>
        </mxCell>
        <mxCell id="rRmiGGZcv_EvDIRI6Y1_-65" value="" style="rounded=1;whiteSpace=wrap;html=1;strokeColor=#333333;strokeWidth=1;fillColor=none;fontSize=14;fontColor=#4D4D4D;" parent="1" vertex="1">
          <mxGeometry x="250" y="330" width="98" height="40" as="geometry"/>
        </mxCell>
        <mxCell id="rRmiGGZcv_EvDIRI6Y1_-66" value="lvs" style="text;html=1;strokeColor=none;fillColor=none;align=center;verticalAlign=middle;whiteSpace=wrap;rounded=0;fontSize=14;fontColor=#4D4D4D;" parent="1" vertex="1">
          <mxGeometry x="279" y="330" width="40" height="20" as="geometry"/>
        </mxCell>
        <mxCell id="rRmiGGZcv_EvDIRI6Y1_-67" value="keepalived" style="text;html=1;strokeColor=none;fillColor=none;align=center;verticalAlign=middle;whiteSpace=wrap;rounded=0;fontSize=14;fontColor=#4D4D4D;" parent="1" vertex="1">
          <mxGeometry x="279" y="348" width="40" height="20" as="geometry"/>
        </mxCell>
        <mxCell id="rRmiGGZcv_EvDIRI6Y1_-68" value="" style="endArrow=classic;startArrow=classic;html=1;dashed=1;strokeColor=#666666;fontSize=14;fontColor=#4D4D4D;entryX=0;entryY=0.5;entryDx=0;entryDy=0;exitX=1;exitY=0.5;exitDx=0;exitDy=0;" parent="1" source="rRmiGGZcv_EvDIRI6Y1_-58" target="rRmiGGZcv_EvDIRI6Y1_-65" edge="1">
          <mxGeometry width="50" height="50" relative="1" as="geometry">
            <mxPoint x="200" y="380" as="sourcePoint"/>
            <mxPoint x="250" y="330" as="targetPoint"/>
          </mxGeometry>
        </mxCell>
        <mxCell id="rRmiGGZcv_EvDIRI6Y1_-69" value="virtual ip" style="text;html=1;strokeColor=none;fillColor=none;align=center;verticalAlign=middle;whiteSpace=wrap;rounded=0;fontSize=14;fontColor=#4D4D4D;" parent="1" vertex="1">
          <mxGeometry x="178" y="320" width="74" height="20" as="geometry"/>
        </mxCell>
        <mxCell id="rRmiGGZcv_EvDIRI6Y1_-70" value="" style="rounded=1;whiteSpace=wrap;html=1;strokeColor=#333333;strokeWidth=1;fillColor=none;fontSize=14;fontColor=#4D4D4D;" parent="1" vertex="1">
          <mxGeometry x="460" y="320" width="289" height="60" as="geometry"/>
        </mxCell>
        <mxCell id="rRmiGGZcv_EvDIRI6Y1_-71" value="" style="rounded=1;whiteSpace=wrap;html=1;strokeColor=#333333;strokeWidth=1;fillColor=none;fontSize=14;fontColor=#4D4D4D;" parent="1" vertex="1">
          <mxGeometry x="471" y="330" width="98" height="40" as="geometry"/>
        </mxCell>
        <mxCell id="rRmiGGZcv_EvDIRI6Y1_-72" value="lvs" style="text;html=1;strokeColor=none;fillColor=none;align=center;verticalAlign=middle;whiteSpace=wrap;rounded=0;fontSize=14;fontColor=#4D4D4D;" parent="1" vertex="1">
          <mxGeometry x="500" y="330" width="40" height="20" as="geometry"/>
        </mxCell>
        <mxCell id="rRmiGGZcv_EvDIRI6Y1_-73" value="keepalived" style="text;html=1;strokeColor=none;fillColor=none;align=center;verticalAlign=middle;whiteSpace=wrap;rounded=0;fontSize=14;fontColor=#4D4D4D;" parent="1" vertex="1">
          <mxGeometry x="500" y="348" width="40" height="20" as="geometry"/>
        </mxCell>
        <mxCell id="rRmiGGZcv_EvDIRI6Y1_-74" value="" style="rounded=1;whiteSpace=wrap;html=1;strokeColor=#333333;strokeWidth=1;fillColor=none;fontSize=14;fontColor=#4D4D4D;" parent="1" vertex="1">
          <mxGeometry x="639" y="330" width="98" height="40" as="geometry"/>
        </mxCell>
        <mxCell id="rRmiGGZcv_EvDIRI6Y1_-75" value="lvs" style="text;html=1;strokeColor=none;fillColor=none;align=center;verticalAlign=middle;whiteSpace=wrap;rounded=0;fontSize=14;fontColor=#4D4D4D;" parent="1" vertex="1">
          <mxGeometry x="668" y="330" width="40" height="20" as="geometry"/>
        </mxCell>
        <mxCell id="rRmiGGZcv_EvDIRI6Y1_-76" value="keepalived" style="text;html=1;strokeColor=none;fillColor=none;align=center;verticalAlign=middle;whiteSpace=wrap;rounded=0;fontSize=14;fontColor=#4D4D4D;" parent="1" vertex="1">
          <mxGeometry x="668" y="348" width="40" height="20" as="geometry"/>
        </mxCell>
        <mxCell id="rRmiGGZcv_EvDIRI6Y1_-77" value="" style="endArrow=classic;startArrow=classic;html=1;dashed=1;strokeColor=#666666;fontSize=14;fontColor=#4D4D4D;entryX=0;entryY=0.5;entryDx=0;entryDy=0;exitX=1;exitY=0.5;exitDx=0;exitDy=0;" parent="1" source="rRmiGGZcv_EvDIRI6Y1_-71" target="rRmiGGZcv_EvDIRI6Y1_-74" edge="1">
          <mxGeometry width="50" height="50" relative="1" as="geometry">
            <mxPoint x="589" y="380" as="sourcePoint"/>
            <mxPoint x="639" y="330" as="targetPoint"/>
          </mxGeometry>
        </mxCell>
        <mxCell id="rRmiGGZcv_EvDIRI6Y1_-78" value="virtual ip" style="text;html=1;strokeColor=none;fillColor=none;align=center;verticalAlign=middle;whiteSpace=wrap;rounded=0;fontSize=14;fontColor=#4D4D4D;" parent="1" vertex="1">
          <mxGeometry x="567" y="320" width="74" height="20" as="geometry"/>
        </mxCell>
        <mxCell id="rRmiGGZcv_EvDIRI6Y1_-79" value="" style="endArrow=classic;startArrow=classic;html=1;strokeColor=#666666;fontSize=14;fontColor=#4D4D4D;entryX=0.55;entryY=0.95;entryDx=0;entryDy=0;entryPerimeter=0;exitX=0.75;exitY=0;exitDx=0;exitDy=0;" parent="1" source="rRmiGGZcv_EvDIRI6Y1_-61" target="rRmiGGZcv_EvDIRI6Y1_-34" edge="1">
          <mxGeometry width="50" height="50" relative="1" as="geometry">
            <mxPoint x="230" y="330" as="sourcePoint"/>
            <mxPoint x="280" y="280" as="targetPoint"/>
            <Array as="points">
              <mxPoint x="141" y="300"/>
              <mxPoint x="378" y="300"/>
            </Array>
          </mxGeometry>
        </mxCell>
        <mxCell id="rRmiGGZcv_EvDIRI6Y1_-80" value="" style="endArrow=classic;startArrow=classic;html=1;strokeColor=#666666;fontSize=14;fontColor=#4D4D4D;exitX=0.8;exitY=0.8;exitDx=0;exitDy=0;exitPerimeter=0;entryX=0.5;entryY=0;entryDx=0;entryDy=0;" parent="1" source="rRmiGGZcv_EvDIRI6Y1_-34" target="rRmiGGZcv_EvDIRI6Y1_-72" edge="1">
          <mxGeometry width="50" height="50" relative="1" as="geometry">
            <mxPoint x="490" y="310" as="sourcePoint"/>
            <mxPoint x="540" y="260" as="targetPoint"/>
            <Array as="points">
              <mxPoint x="418" y="300"/>
              <mxPoint x="520" y="300"/>
            </Array>
          </mxGeometry>
        </mxCell>
        <mxCell id="rRmiGGZcv_EvDIRI6Y1_-83" value="" style="endArrow=classic;html=1;strokeColor=#666666;fontSize=14;fontColor=#4D4D4D;entryX=1;entryY=0.5;entryDx=0;entryDy=0;entryPerimeter=0;dashed=1;" parent="1" target="rRmiGGZcv_EvDIRI6Y1_-38" edge="1">
          <mxGeometry width="50" height="50" relative="1" as="geometry">
            <mxPoint x="310" y="145" as="sourcePoint"/>
            <mxPoint x="260" y="150" as="targetPoint"/>
          </mxGeometry>
        </mxCell>
        <mxCell id="rRmiGGZcv_EvDIRI6Y1_-84" value="VPN" style="text;html=1;strokeColor=none;fillColor=none;align=center;verticalAlign=middle;whiteSpace=wrap;rounded=0;fontSize=14;fontColor=#4D4D4D;" parent="1" vertex="1">
          <mxGeometry x="350" y="230" width="40" height="20" as="geometry"/>
        </mxCell>
        <mxCell id="rRmiGGZcv_EvDIRI6Y1_-85" value="&lt;span style=&quot;color: rgb(51 , 51 , 51) ; font-size: 12px&quot;&gt;95.177.161.224&lt;/span&gt;" style="text;html=1;strokeColor=none;fillColor=none;align=center;verticalAlign=middle;whiteSpace=wrap;rounded=0;fontSize=14;fontColor=#4D4D4D;" parent="1" vertex="1">
          <mxGeometry x="158" y="80" width="40" height="20" as="geometry"/>
        </mxCell>
        <mxCell id="rRmiGGZcv_EvDIRI6Y1_-86" value="&lt;span style=&quot;color: rgb(51 , 51 , 51) ; font-size: 12px&quot;&gt;95.177.163.224&lt;/span&gt;" style="text;html=1;strokeColor=none;fillColor=none;align=center;verticalAlign=middle;whiteSpace=wrap;rounded=0;fontSize=14;fontColor=#4D4D4D;" parent="1" vertex="1">
          <mxGeometry x="235" y="126" width="40" height="20" as="geometry"/>
        </mxCell>
        <mxCell id="rRmiGGZcv_EvDIRI6Y1_-89" style="edgeStyle=none;rounded=0;orthogonalLoop=1;jettySize=auto;html=1;exitX=0;exitY=0.5;exitDx=0;exitDy=0;dashed=1;strokeColor=#666666;fontSize=14;fontColor=#4D4D4D;" parent="1" edge="1">
          <mxGeometry relative="1" as="geometry">
            <mxPoint x="226" y="135" as="sourcePoint"/>
            <mxPoint x="226" y="135" as="targetPoint"/>
          </mxGeometry>
        </mxCell>
        <mxCell id="rRmiGGZcv_EvDIRI6Y1_-91" value="&lt;span style=&quot;color: rgb(51 , 51 , 51) ; font-size: 12px&quot;&gt;95.177.161.224&lt;/span&gt;" style="text;html=1;strokeColor=none;fillColor=none;align=center;verticalAlign=middle;whiteSpace=wrap;rounded=0;fontSize=14;fontColor=#4D4D4D;" parent="1" vertex="1">
          <mxGeometry x="180" y="280" width="40" height="20" as="geometry"/>
        </mxCell>
        <mxCell id="rRmiGGZcv_EvDIRI6Y1_-93" value="&lt;span style=&quot;color: rgb(51 , 51 , 51) ; font-size: 12px&quot;&gt;95.177.163.224&lt;/span&gt;" style="text;html=1;strokeColor=none;fillColor=none;align=center;verticalAlign=middle;whiteSpace=wrap;rounded=0;fontSize=14;fontColor=#4D4D4D;" parent="1" vertex="1">
          <mxGeometry x="449" y="280" width="40" height="20" as="geometry"/>
        </mxCell>
        <mxCell id="rRmiGGZcv_EvDIRI6Y1_-96" value="" style="endArrow=classic;html=1;strokeColor=#666666;fontSize=14;fontColor=#4D4D4D;entryX=0.5;entryY=1;entryDx=0;entryDy=0;entryPerimeter=0;" parent="1" target="rRmiGGZcv_EvDIRI6Y1_-38" edge="1">
          <mxGeometry width="50" height="50" relative="1" as="geometry">
            <mxPoint x="155" y="260" as="sourcePoint"/>
            <mxPoint x="190" y="190" as="targetPoint"/>
          </mxGeometry>
        </mxCell>
        <mxCell id="rRmiGGZcv_EvDIRI6Y1_-97" value="load balancing" style="shape=document;whiteSpace=wrap;html=1;boundedLbl=1;strokeColor=#333333;strokeWidth=1;fillColor=none;fontSize=14;fontColor=#4D4D4D;" parent="1" vertex="1">
          <mxGeometry x="152.5" y="380" width="125" height="30" as="geometry"/>
        </mxCell>
        <mxCell id="rRmiGGZcv_EvDIRI6Y1_-98" value="load balancing" style="shape=document;whiteSpace=wrap;html=1;boundedLbl=1;strokeColor=#333333;strokeWidth=1;fillColor=none;fontSize=14;fontColor=#4D4D4D;direction=east;" parent="1" vertex="1">
          <mxGeometry x="542" y="380" width="125" height="30" as="geometry"/>
        </mxCell>
        <mxCell id="rRmiGGZcv_EvDIRI6Y1_-99" value="nginx" style="rounded=1;whiteSpace=wrap;html=1;strokeColor=#333333;strokeWidth=1;fillColor=none;fontSize=14;fontColor=#4D4D4D;" parent="1" vertex="1">
          <mxGeometry x="175" y="510" width="80" height="30" as="geometry"/>
        </mxCell>
        <mxCell id="rRmiGGZcv_EvDIRI6Y1_-100" value="nginx" style="rounded=1;whiteSpace=wrap;html=1;strokeColor=#333333;strokeWidth=1;fillColor=none;fontSize=14;fontColor=#4D4D4D;" parent="1" vertex="1">
          <mxGeometry x="564.5" y="510" width="80" height="30" as="geometry"/>
        </mxCell>
        <mxCell id="rRmiGGZcv_EvDIRI6Y1_-101" value="nginx" style="rounded=1;whiteSpace=wrap;html=1;strokeColor=#333333;strokeWidth=1;fillColor=none;fontSize=14;fontColor=#4D4D4D;" parent="1" vertex="1">
          <mxGeometry x="370" y="510" width="80" height="30" as="geometry"/>
        </mxCell>
        <mxCell id="rRmiGGZcv_EvDIRI6Y1_-105" style="edgeStyle=none;rounded=0;orthogonalLoop=1;jettySize=auto;html=1;entryX=0.5;entryY=0;entryDx=0;entryDy=0;strokeColor=#666666;fontSize=14;fontColor=#4D4D4D;" parent="1" source="rRmiGGZcv_EvDIRI6Y1_-101" target="rRmiGGZcv_EvDIRI6Y1_-101" edge="1">
          <mxGeometry relative="1" as="geometry"/>
        </mxCell>
        <mxCell id="rRmiGGZcv_EvDIRI6Y1_-109" value="" style="endArrow=classic;startArrow=classic;html=1;strokeColor=#666666;fontSize=14;fontColor=#4D4D4D;exitX=0.5;exitY=0;exitDx=0;exitDy=0;entryX=0.5;entryY=0;entryDx=0;entryDy=0;" parent="1" source="rRmiGGZcv_EvDIRI6Y1_-99" target="rRmiGGZcv_EvDIRI6Y1_-100" edge="1">
          <mxGeometry width="50" height="50" relative="1" as="geometry">
            <mxPoint x="40" y="560" as="sourcePoint"/>
            <mxPoint x="90" y="510" as="targetPoint"/>
            <Array as="points">
              <mxPoint x="215" y="490"/>
              <mxPoint x="605" y="490"/>
            </Array>
          </mxGeometry>
        </mxCell>
        <mxCell id="rRmiGGZcv_EvDIRI6Y1_-112" value="" style="verticalLabelPosition=bottom;verticalAlign=top;html=1;shape=mxgraph.basic.plaque;dx=6;strokeColor=#333333;strokeWidth=1;fillColor=#99FFCC;fontSize=14;fontColor=#4D4D4D;" parent="1" vertex="1">
          <mxGeometry x="365" y="420" width="90" height="35" as="geometry"/>
        </mxCell>
        <mxCell id="rRmiGGZcv_EvDIRI6Y1_-113" value="" style="endArrow=classic;startArrow=classic;html=1;strokeColor=#666666;fontSize=14;fontColor=#4D4D4D;entryX=0.5;entryY=1;entryDx=0;entryDy=0;entryPerimeter=0;exitX=0.5;exitY=0;exitDx=0;exitDy=0;" parent="1" source="rRmiGGZcv_EvDIRI6Y1_-101" target="rRmiGGZcv_EvDIRI6Y1_-112" edge="1">
          <mxGeometry width="50" height="50" relative="1" as="geometry">
            <mxPoint x="370" y="510" as="sourcePoint"/>
            <mxPoint x="420" y="460" as="targetPoint"/>
          </mxGeometry>
        </mxCell>
        <mxCell id="rRmiGGZcv_EvDIRI6Y1_-114" value="" style="endArrow=classic;startArrow=classic;html=1;strokeColor=#666666;fontSize=14;fontColor=#4D4D4D;entryX=0;entryY=0.5;entryDx=0;entryDy=0;entryPerimeter=0;exitX=0.476;exitY=0.933;exitDx=0;exitDy=0;exitPerimeter=0;" parent="1" source="rRmiGGZcv_EvDIRI6Y1_-97" target="rRmiGGZcv_EvDIRI6Y1_-112" edge="1">
          <mxGeometry width="50" height="50" relative="1" as="geometry">
            <mxPoint x="260" y="480" as="sourcePoint"/>
            <mxPoint x="310" y="430" as="targetPoint"/>
            <Array as="points">
              <mxPoint x="212" y="438"/>
            </Array>
          </mxGeometry>
        </mxCell>
        <mxCell id="rRmiGGZcv_EvDIRI6Y1_-115" value="" style="endArrow=classic;startArrow=classic;html=1;strokeColor=#666666;fontSize=14;fontColor=#4D4D4D;exitX=0.536;exitY=0.933;exitDx=0;exitDy=0;exitPerimeter=0;entryX=1;entryY=0.5;entryDx=0;entryDy=0;entryPerimeter=0;" parent="1" source="rRmiGGZcv_EvDIRI6Y1_-98" target="rRmiGGZcv_EvDIRI6Y1_-112" edge="1">
          <mxGeometry width="50" height="50" relative="1" as="geometry">
            <mxPoint x="40" y="610" as="sourcePoint"/>
            <mxPoint x="90" y="560" as="targetPoint"/>
            <Array as="points">
              <mxPoint x="609" y="438"/>
            </Array>
          </mxGeometry>
        </mxCell>
        <mxCell id="rRmiGGZcv_EvDIRI6Y1_-116" value="LAN" style="text;html=1;strokeColor=none;fillColor=none;align=center;verticalAlign=middle;whiteSpace=wrap;rounded=0;fontSize=14;fontColor=#4D4D4D;" parent="1" vertex="1">
          <mxGeometry x="390" y="427.5" width="40" height="20" as="geometry"/>
        </mxCell>
        <mxCell id="rRmiGGZcv_EvDIRI6Y1_-118" value="HES Core Service&lt;br&gt;&lt;span style=&quot;font-weight: normal&quot;&gt;keepalived&lt;/span&gt;" style="html=1;whiteSpace=wrap;comic=1;strokeWidth=1;fontFamily=Comic Sans MS;fontStyle=1;fillColor=none;strokeColor=#333333;fontColor=#333333;" parent="1" vertex="1">
          <mxGeometry x="121" y="630" width="209" height="50" as="geometry"/>
        </mxCell>
        <mxCell id="rRmiGGZcv_EvDIRI6Y1_-119" value="HES Core Service&lt;br&gt;&lt;span style=&quot;font-weight: normal&quot;&gt;keepalived&lt;/span&gt;" style="html=1;whiteSpace=wrap;comic=1;strokeWidth=1;fontFamily=Comic Sans MS;fontStyle=1;fillColor=none;strokeColor=#333333;fontColor=#333333;" parent="1" vertex="1">
          <mxGeometry x="493" y="630" width="209" height="50" as="geometry"/>
        </mxCell>
        <mxCell id="rRmiGGZcv_EvDIRI6Y1_-120" value="" style="verticalLabelPosition=bottom;verticalAlign=top;html=1;shape=mxgraph.basic.plaque;dx=6;strokeColor=#333333;strokeWidth=1;fillColor=#99FFCC;fontSize=14;fontColor=#4D4D4D;" parent="1" vertex="1">
          <mxGeometry x="367" y="637.5" width="90" height="35" as="geometry"/>
        </mxCell>
        <mxCell id="rRmiGGZcv_EvDIRI6Y1_-121" value="LAN" style="text;html=1;strokeColor=none;fillColor=none;align=center;verticalAlign=middle;whiteSpace=wrap;rounded=0;fontSize=14;fontColor=#4D4D4D;" parent="1" vertex="1">
          <mxGeometry x="387.5" y="645" width="40" height="20" as="geometry"/>
        </mxCell>
        <mxCell id="rRmiGGZcv_EvDIRI6Y1_-124" value="" style="endArrow=classic;startArrow=classic;html=1;strokeColor=#666666;fontSize=14;fontColor=#4D4D4D;entryX=0.5;entryY=1;entryDx=0;entryDy=0;exitX=0.5;exitY=1;exitDx=0;exitDy=0;" parent="1" source="rRmiGGZcv_EvDIRI6Y1_-99" target="rRmiGGZcv_EvDIRI6Y1_-100" edge="1">
          <mxGeometry width="50" height="50" relative="1" as="geometry">
            <mxPoint x="40" y="750" as="sourcePoint"/>
            <mxPoint x="90" y="700" as="targetPoint"/>
            <Array as="points">
              <mxPoint x="215" y="560"/>
              <mxPoint x="605" y="560"/>
            </Array>
          </mxGeometry>
        </mxCell>
        <mxCell id="rRmiGGZcv_EvDIRI6Y1_-125" value="" style="endArrow=classic;startArrow=classic;html=1;strokeColor=#666666;fontSize=14;fontColor=#4D4D4D;entryX=0.5;entryY=1;entryDx=0;entryDy=0;exitX=0.5;exitY=0;exitDx=0;exitDy=0;exitPerimeter=0;" parent="1" source="rRmiGGZcv_EvDIRI6Y1_-120" target="rRmiGGZcv_EvDIRI6Y1_-101" edge="1">
          <mxGeometry width="50" height="50" relative="1" as="geometry">
            <mxPoint x="40" y="750" as="sourcePoint"/>
            <mxPoint x="90" y="700" as="targetPoint"/>
          </mxGeometry>
        </mxCell>
        <mxCell id="rRmiGGZcv_EvDIRI6Y1_-126" value="" style="endArrow=classic;startArrow=classic;html=1;strokeColor=#666666;fontSize=14;fontColor=#4D4D4D;entryX=0;entryY=0.5;entryDx=0;entryDy=0;entryPerimeter=0;exitX=1;exitY=0.5;exitDx=0;exitDy=0;" parent="1" source="rRmiGGZcv_EvDIRI6Y1_-118" target="rRmiGGZcv_EvDIRI6Y1_-120" edge="1">
          <mxGeometry width="50" height="50" relative="1" as="geometry">
            <mxPoint x="40" y="750" as="sourcePoint"/>
            <mxPoint x="90" y="700" as="targetPoint"/>
          </mxGeometry>
        </mxCell>
        <mxCell id="rRmiGGZcv_EvDIRI6Y1_-127" value="" style="endArrow=classic;startArrow=classic;html=1;strokeColor=#666666;fontSize=14;fontColor=#4D4D4D;exitX=1;exitY=0.5;exitDx=0;exitDy=0;entryX=0;entryY=0.5;entryDx=0;entryDy=0;" parent="1" target="rRmiGGZcv_EvDIRI6Y1_-119" edge="1">
          <mxGeometry width="50" height="50" relative="1" as="geometry">
            <mxPoint x="456.5" y="655" as="sourcePoint"/>
            <mxPoint x="490" y="655" as="targetPoint"/>
          </mxGeometry>
        </mxCell>
        <mxCell id="rRmiGGZcv_EvDIRI6Y1_-129" value="" style="endArrow=none;html=1;strokeColor=#666666;fontSize=14;fontColor=#4D4D4D;" parent="1" edge="1">
          <mxGeometry width="50" height="50" relative="1" as="geometry">
            <mxPoint x="230" y="749" as="sourcePoint"/>
            <mxPoint x="600" y="749" as="targetPoint"/>
          </mxGeometry>
        </mxCell>
        <mxCell id="rRmiGGZcv_EvDIRI6Y1_-130" value="" style="endArrow=none;html=1;strokeColor=#666666;fontSize=14;fontColor=#4D4D4D;" parent="1" edge="1">
          <mxGeometry width="50" height="50" relative="1" as="geometry">
            <mxPoint x="230" y="769" as="sourcePoint"/>
            <mxPoint x="600" y="769" as="targetPoint"/>
          </mxGeometry>
        </mxCell>
        <mxCell id="rRmiGGZcv_EvDIRI6Y1_-131" value="" style="endArrow=none;html=1;strokeColor=#666666;fontSize=14;fontColor=#4D4D4D;" parent="1" edge="1">
          <mxGeometry width="50" height="50" relative="1" as="geometry">
            <mxPoint x="230" y="789" as="sourcePoint"/>
            <mxPoint x="600" y="789" as="targetPoint"/>
          </mxGeometry>
        </mxCell>
        <mxCell id="rRmiGGZcv_EvDIRI6Y1_-132" value="" style="endArrow=none;html=1;strokeColor=#666666;fontSize=14;fontColor=#4D4D4D;" parent="1" edge="1">
          <mxGeometry width="50" height="50" relative="1" as="geometry">
            <mxPoint x="232" y="809" as="sourcePoint"/>
            <mxPoint x="600" y="809" as="targetPoint"/>
          </mxGeometry>
        </mxCell>
        <mxCell id="rRmiGGZcv_EvDIRI6Y1_-133" value="" style="rhombus;whiteSpace=wrap;html=1;strokeColor=#333333;strokeWidth=1;fillColor=#FFFF00;fontSize=14;fontColor=#4D4D4D;" parent="1" vertex="1">
          <mxGeometry x="363" y="752" width="14" height="14" as="geometry"/>
        </mxCell>
        <mxCell id="rRmiGGZcv_EvDIRI6Y1_-141" value="" style="rhombus;whiteSpace=wrap;html=1;strokeColor=#333333;strokeWidth=1;fillColor=#FFFF00;fontSize=14;fontColor=#4D4D4D;" parent="1" vertex="1">
          <mxGeometry x="405.5" y="752" width="14" height="14" as="geometry"/>
        </mxCell>
        <mxCell id="rRmiGGZcv_EvDIRI6Y1_-142" value="" style="rhombus;whiteSpace=wrap;html=1;strokeColor=#333333;strokeWidth=1;fillColor=#FFFF00;fontSize=14;fontColor=#4D4D4D;" parent="1" vertex="1">
          <mxGeometry x="448" y="752" width="14" height="14" as="geometry"/>
        </mxCell>
        <mxCell id="rRmiGGZcv_EvDIRI6Y1_-147" value="" style="rhombus;whiteSpace=wrap;html=1;strokeColor=#333333;strokeWidth=1;fillColor=#FF3399;fontSize=14;fontColor=#4D4D4D;" parent="1" vertex="1">
          <mxGeometry x="362.5" y="772" width="14" height="14" as="geometry"/>
        </mxCell>
        <mxCell id="rRmiGGZcv_EvDIRI6Y1_-148" value="" style="rhombus;whiteSpace=wrap;html=1;strokeColor=#333333;strokeWidth=1;fillColor=#FF3399;fontSize=14;fontColor=#4D4D4D;" parent="1" vertex="1">
          <mxGeometry x="405" y="772" width="14" height="14" as="geometry"/>
        </mxCell>
        <mxCell id="rRmiGGZcv_EvDIRI6Y1_-149" value="" style="rhombus;whiteSpace=wrap;html=1;strokeColor=#333333;strokeWidth=1;fillColor=#FF3399;fontSize=14;fontColor=#4D4D4D;" parent="1" vertex="1">
          <mxGeometry x="447.5" y="772" width="14" height="14" as="geometry"/>
        </mxCell>
        <mxCell id="rRmiGGZcv_EvDIRI6Y1_-150" value="" style="rhombus;whiteSpace=wrap;html=1;strokeColor=#333333;strokeWidth=1;fillColor=#00CC66;fontSize=14;fontColor=#4D4D4D;" parent="1" vertex="1">
          <mxGeometry x="362.5" y="792" width="14" height="14" as="geometry"/>
        </mxCell>
        <mxCell id="rRmiGGZcv_EvDIRI6Y1_-151" value="" style="rhombus;whiteSpace=wrap;html=1;strokeColor=#333333;strokeWidth=1;fillColor=#00CC66;fontSize=14;fontColor=#4D4D4D;" parent="1" vertex="1">
          <mxGeometry x="405" y="792" width="14" height="14" as="geometry"/>
        </mxCell>
        <mxCell id="rRmiGGZcv_EvDIRI6Y1_-152" value="" style="rhombus;whiteSpace=wrap;html=1;strokeColor=#333333;strokeWidth=1;fillColor=#00CC66;fontSize=14;fontColor=#4D4D4D;" parent="1" vertex="1">
          <mxGeometry x="447.5" y="792" width="14" height="14" as="geometry"/>
        </mxCell>
        <mxCell id="rRmiGGZcv_EvDIRI6Y1_-153" value="" style="shape=step;perimeter=stepPerimeter;whiteSpace=wrap;html=1;fixedSize=1;strokeColor=none;strokeWidth=1;fillColor=#00994D;fontSize=14;fontColor=#4D4D4D;" parent="1" vertex="1">
          <mxGeometry x="170" y="759" width="59" height="40" as="geometry"/>
        </mxCell>
        <mxCell id="rRmiGGZcv_EvDIRI6Y1_-154" value="" style="endArrow=classic;startArrow=classic;html=1;strokeColor=#00994D;fontSize=14;fontColor=#4D4D4D;entryX=0.5;entryY=1;entryDx=0;entryDy=0;entryPerimeter=0;" parent="1" target="rRmiGGZcv_EvDIRI6Y1_-120" edge="1">
          <mxGeometry width="50" height="50" relative="1" as="geometry">
            <mxPoint x="170" y="780" as="sourcePoint"/>
            <mxPoint x="440" y="700" as="targetPoint"/>
            <Array as="points">
              <mxPoint x="120" y="780"/>
              <mxPoint x="120" y="710"/>
              <mxPoint x="412" y="710"/>
            </Array>
          </mxGeometry>
        </mxCell>
        <mxCell id="rRmiGGZcv_EvDIRI6Y1_-155" value="" style="shape=step;perimeter=stepPerimeter;whiteSpace=wrap;html=1;fixedSize=1;strokeColor=none;strokeWidth=1;fillColor=#00994D;fontSize=14;fontColor=#4D4D4D;" parent="1" vertex="1">
          <mxGeometry x="600.5" y="759" width="59" height="40" as="geometry"/>
        </mxCell>
        <mxCell id="rRmiGGZcv_EvDIRI6Y1_-188" value="" style="shape=flexArrow;endArrow=classic;html=1;strokeColor=#FF9933;fontSize=14;fontColor=#4D4D4D;width=14;endSize=4.67;fillColor=#FF9933;opacity=30;" parent="1" edge="1">
          <mxGeometry width="50" height="50" relative="1" as="geometry">
            <mxPoint x="111" y="655" as="sourcePoint"/>
            <mxPoint x="51" y="655" as="targetPoint"/>
          </mxGeometry>
        </mxCell>
        <mxCell id="rRmiGGZcv_EvDIRI6Y1_-189" value="" style="shape=flexArrow;endArrow=classic;html=1;strokeColor=#FF9933;fontSize=14;fontColor=#4D4D4D;width=14;endSize=4.67;fillColor=#FF9933;opacity=30;" parent="1" edge="1">
          <mxGeometry width="50" height="50" relative="1" as="geometry">
            <mxPoint x="710" y="655" as="sourcePoint"/>
            <mxPoint x="770" y="655" as="targetPoint"/>
          </mxGeometry>
        </mxCell>
        <mxCell id="rRmiGGZcv_EvDIRI6Y1_-190" value="" style="shape=flexArrow;endArrow=classic;html=1;strokeColor=#FF9933;fontSize=14;fontColor=#4D4D4D;width=14;endSize=4.67;fillColor=#FF9933;opacity=30;" parent="1" edge="1">
          <mxGeometry width="50" height="50" relative="1" as="geometry">
            <mxPoint x="657" y="525" as="sourcePoint"/>
            <mxPoint x="717" y="525" as="targetPoint"/>
          </mxGeometry>
        </mxCell>
        <mxCell id="rRmiGGZcv_EvDIRI6Y1_-191" value="" style="shape=flexArrow;endArrow=classic;html=1;strokeColor=#FF9933;fontSize=14;fontColor=#4D4D4D;width=14;endSize=4.67;fillColor=#FF9933;opacity=30;" parent="1" edge="1">
          <mxGeometry width="50" height="50" relative="1" as="geometry">
            <mxPoint x="760" y="348" as="sourcePoint"/>
            <mxPoint x="820" y="348" as="targetPoint"/>
          </mxGeometry>
        </mxCell>
        <mxCell id="rRmiGGZcv_EvDIRI6Y1_-192" value="" style="shape=flexArrow;endArrow=classic;html=1;strokeColor=#FF9933;fontSize=14;fontColor=#4D4D4D;width=14;endSize=4.67;fillColor=#FF9933;opacity=30;" parent="1" edge="1">
          <mxGeometry width="50" height="50" relative="1" as="geometry">
            <mxPoint x="60" y="347" as="sourcePoint"/>
            <mxPoint y="347" as="targetPoint"/>
          </mxGeometry>
        </mxCell>
        <mxCell id="rRmiGGZcv_EvDIRI6Y1_-193" value="" style="shape=flexArrow;endArrow=classic;html=1;strokeColor=#FF9933;fontSize=14;fontColor=#4D4D4D;width=14;endSize=4.67;fillColor=#FF9933;opacity=30;" parent="1" edge="1">
          <mxGeometry width="50" height="50" relative="1" as="geometry">
            <mxPoint x="161" y="524" as="sourcePoint"/>
            <mxPoint x="101" y="524" as="targetPoint"/>
          </mxGeometry>
        </mxCell>
        <mxCell id="rRmiGGZcv_EvDIRI6Y1_-197" value="" style="endArrow=classic;html=1;strokeColor=#00994D;fillColor=#FF9933;fontSize=14;fontColor=#4D4D4D;" parent="1" edge="1">
          <mxGeometry width="50" height="50" relative="1" as="geometry">
            <mxPoint x="670" y="780" as="sourcePoint"/>
            <mxPoint x="490" y="856" as="targetPoint"/>
            <Array as="points">
              <mxPoint x="710" y="780"/>
              <mxPoint x="710" y="856"/>
            </Array>
          </mxGeometry>
        </mxCell>
        <mxCell id="rRmiGGZcv_EvDIRI6Y1_-198" value="Database&lt;br&gt;&lt;span style=&quot;font-weight: normal&quot;&gt;keepalived&lt;/span&gt;" style="html=1;whiteSpace=wrap;comic=1;strokeWidth=1;fontFamily=Comic Sans MS;fontStyle=1;fillColor=none;strokeColor=#333333;fontColor=#333333;" parent="1" vertex="1">
          <mxGeometry x="160.5" y="922" width="209" height="56" as="geometry"/>
        </mxCell>
        <mxCell id="rRmiGGZcv_EvDIRI6Y1_-200" value="Database Service" style="shape=dataStorage;whiteSpace=wrap;html=1;strokeColor=#333333;strokeWidth=1;fillColor=#3333FF;fontSize=14;fontColor=#FFFFFF;" parent="1" vertex="1">
          <mxGeometry x="328.5" y="838" width="167" height="36" as="geometry"/>
        </mxCell>
        <mxCell id="rRmiGGZcv_EvDIRI6Y1_-201" value="" style="image;html=1;labelBackgroundColor=#ffffff;image=img/lib/clip_art/computers/Database_128x128.png;strokeColor=#333333;strokeWidth=1;fillColor=#FF9999;fontSize=14;fontColor=#4D4D4D;" parent="1" vertex="1">
          <mxGeometry x="171.5" y="932" width="36" height="36" as="geometry"/>
        </mxCell>
        <mxCell id="rRmiGGZcv_EvDIRI6Y1_-202" value="Database&lt;br&gt;&lt;span style=&quot;font-weight: normal&quot;&gt;keepalived&lt;/span&gt;" style="html=1;whiteSpace=wrap;comic=1;strokeWidth=1;fontFamily=Comic Sans MS;fontStyle=1;fillColor=none;strokeColor=#333333;fontColor=#333333;" parent="1" vertex="1">
          <mxGeometry x="454.5" y="922" width="209" height="56" as="geometry"/>
        </mxCell>
        <mxCell id="rRmiGGZcv_EvDIRI6Y1_-203" value="" style="image;html=1;labelBackgroundColor=#ffffff;image=img/lib/clip_art/computers/Database_128x128.png;strokeColor=#333333;strokeWidth=1;fillColor=#FF9999;fontSize=14;fontColor=#4D4D4D;" parent="1" vertex="1">
          <mxGeometry x="465.5" y="932" width="36" height="36" as="geometry"/>
        </mxCell>
        <mxCell id="rRmiGGZcv_EvDIRI6Y1_-206" value="" style="shape=flexArrow;endArrow=classic;html=1;strokeColor=#FF9933;fontSize=14;fontColor=#4D4D4D;width=14;endSize=4.67;fillColor=#FF9933;opacity=30;" parent="1" edge="1">
          <mxGeometry width="50" height="50" relative="1" as="geometry">
            <mxPoint x="150" y="950" as="sourcePoint"/>
            <mxPoint x="90" y="950" as="targetPoint"/>
          </mxGeometry>
        </mxCell>
        <mxCell id="rRmiGGZcv_EvDIRI6Y1_-207" value="" style="shape=flexArrow;endArrow=classic;html=1;strokeColor=#FF9933;fontSize=14;fontColor=#4D4D4D;width=14;endSize=4.67;fillColor=#FF9933;opacity=30;" parent="1" edge="1">
          <mxGeometry width="50" height="50" relative="1" as="geometry">
            <mxPoint x="672" y="948" as="sourcePoint"/>
            <mxPoint x="732" y="948" as="targetPoint"/>
          </mxGeometry>
        </mxCell>
        <mxCell id="rRmiGGZcv_EvDIRI6Y1_-209" value="" style="edgeStyle=elbowEdgeStyle;elbow=vertical;endArrow=classic;html=1;strokeColor=#00994D;fillColor=#FF9933;fontSize=14;fontColor=#FFFFFF;entryX=0.5;entryY=0;entryDx=0;entryDy=0;exitX=0.5;exitY=1;exitDx=0;exitDy=0;" parent="1" source="rRmiGGZcv_EvDIRI6Y1_-200" target="rRmiGGZcv_EvDIRI6Y1_-202" edge="1">
          <mxGeometry width="50" height="50" relative="1" as="geometry">
            <mxPoint x="380.5" y="1050" as="sourcePoint"/>
            <mxPoint x="430.5" y="1000" as="targetPoint"/>
          </mxGeometry>
        </mxCell>
        <mxCell id="rRmiGGZcv_EvDIRI6Y1_-211" value="" style="endArrow=classic;html=1;strokeColor=#00994D;fillColor=#FF9933;fontSize=14;fontColor=#FFFFFF;exitX=0;exitY=0.5;exitDx=0;exitDy=0;entryX=0.5;entryY=0;entryDx=0;entryDy=0;" parent="1" source="rRmiGGZcv_EvDIRI6Y1_-200" target="rRmiGGZcv_EvDIRI6Y1_-198" edge="1">
          <mxGeometry width="50" height="50" relative="1" as="geometry">
            <mxPoint x="220" y="910" as="sourcePoint"/>
            <mxPoint x="270" y="860" as="targetPoint"/>
            <Array as="points">
              <mxPoint x="265" y="856"/>
            </Array>
          </mxGeometry>
        </mxCell>
        <mxCell id="rRmiGGZcv_EvDIRI6Y1_-212" value="" style="rounded=1;arcSize=10;dashed=1;strokeColor=#B3B3B3;fillColor=none;gradientColor=none;dashPattern=8 3 1 3;strokeWidth=1;fontSize=14;fontColor=#FFFFFF;opacity=80;" parent="1" vertex="1">
          <mxGeometry x="430" y="80" width="330" height="132" as="geometry"/>
        </mxCell>
      </root>
    </mxGraphModel>
  </diagram>
</mxfile>
